<svg preserveAspectRatio="xMidYMid meet" data-bbox="20 49 159.999 102" viewBox="20 49 159.999 102" height="200" width="200" xmlns="http://www.w3.org/2000/svg" data-type="color" role="presentation" aria-hidden="true" aria-label="">
	<g>
		<path d="M69.675 59.673c-3.499 0-5.293-2.382-6.732-4.296-1.498-1.991-2.52-3.21-4.565-3.21-2.043 0-3.065 1.219-4.563 3.21-1.439 1.914-3.232 4.296-6.732 4.296-.752 0-1.362-.615-1.362-1.372s.61-1.372 1.362-1.372c2.043 0 3.065-1.219 4.563-3.21 1.439-1.914 3.232-4.296 6.732-4.296 3.501 0 5.293 2.382 6.733 4.298 1.498 1.99 2.52 3.208 4.563 3.208 2.04 0 3.059-1.219 4.554-3.208 1.439-1.915 3.228-4.298 6.724-4.298.752 0 1.362.615 1.362 1.372s-.61 1.372-1.362 1.372c-2.039 0-3.058 1.219-4.553 3.208-1.437 1.914-3.227 4.298-6.724 4.298z" fill="#3F4447" data-color="1">
		</path>
		<path d="M73.126 66.624c-.752 0-1.362-.615-1.362-1.372s.61-1.372 1.362-1.372c2.04 0 3.059-1.219 4.554-3.208 1.439-1.915 3.228-4.298 6.724-4.298.752 0 1.362.615 1.362 1.372s-.61 1.372-1.362 1.372c-2.039 0-3.058 1.219-4.553 3.208-1.438 1.914-3.229 4.298-6.725 4.298z" fill="#3F4447" data-color="1">
		</path>
		<path d="M52.135 135.257a7.163 7.163 0 0 1-2.396-.399c-4.172-1.458-5.505-6.368-5.944-7.981-.018-.067-1.56-5.948 1.535-10.909 1.492-2.388 3.101-3.894 4.921-4.603 2.291-.887 4.13 0 5.751.787l.275.134c.68.326.966 1.144.641 1.827a1.358 1.358 0 0 1-1.814.647l-.282-.137c-1.576-.766-2.451-1.141-3.59-.699-1.253.487-2.428 1.632-3.597 3.503-2.426 3.89-1.228 8.673-1.214 8.719.383 1.409 1.394 5.136 4.213 6.121 1.697.595 3.86.109 6.433-1.439 2.26-1.362 4.271-3.068 5.814-4.936a1.348 1.348 0 0 1 1.917-.176c.578.484.656 1.35.174 1.932-1.737 2.101-3.987 4.015-6.508 5.534-2.295 1.382-4.413 2.075-6.329 2.075z" fill="#3F4447" data-color="1">
		</path>
		<path d="M68.371 126.116a2.95 2.95 0 0 1-.133-.003c-2.197-.071-3.925-1.93-3.853-4.143a3.985 3.985 0 0 1 4.111-3.881 3.95 3.95 0 0 1 2.779 1.266 4 4 0 0 1 1.075 2.875 3.998 3.998 0 0 1-1.259 2.799 3.933 3.933 0 0 1-2.72 1.087zm-.006-5.286c-.321 0-.625.121-.86.342a1.27 1.27 0 0 0-.399.887 1.27 1.27 0 0 0 1.22 1.313c.326-.009.656-.11.904-.344a1.27 1.27 0 0 0 .399-.887 1.265 1.265 0 0 0-1.222-1.311h-.042z" fill="#3F4447" data-color="1">
		</path>
		<path d="M66.351 147.11c-.665 0-1.22-.036-1.598-.061-.712-.064-6.294-.693-9.767-5.085-2.223-2.823-2.372-6.396-.405-9.576a1.356 1.356 0 0 1 2.551.646v.025c0 .26-.074.515-.211.734-1.381 2.196-1.309 4.552.196 6.464 2.814 3.558 7.594 4.036 7.797 4.054 1.449.094 5.262.348 7.104-1.991.854-1.067 1.194-2.554 1.046-4.555a1.367 1.367 0 0 1 1.257-1.469 1.36 1.36 0 0 1 1.458 1.266c.198 2.692-.352 4.869-1.635 6.47-2.097 2.664-5.561 3.078-7.793 3.078z" fill="#3F4447" data-color="1">
		</path>
		<path d="M68.362 126.116c-.479 0-.965-.088-1.437-.272-2.046-.801-3.067-3.131-2.272-5.195v-.001c.795-2.063 3.107-3.091 5.157-2.287 2.047.801 3.067 3.131 2.272 5.194a3.995 3.995 0 0 1-3.72 2.561zm-1.172-4.475a1.278 1.278 0 0 0 .721 1.646 1.262 1.262 0 0 0 1.633-.726 1.276 1.276 0 0 0-.719-1.644 1.262 1.262 0 0 0-1.635.724z" fill="#3F4447" data-color="1">
		</path>
		<path d="M79.854 141.878c-2.476.001-4.829-1.183-6.51-3.377-1.663-2.143-2.439-4.674-3.188-7.124-.285-.93-.569-1.859-.903-2.752-.264-.708.092-1.5.796-1.766a1.363 1.363 0 0 1 1.753.802c.352.943.653 1.923.954 2.908.709 2.313 1.378 4.499 2.736 6.25 1.578 2.054 3.882 2.802 6.154 2.003 4.269-1.504 6.316-5.984 6.336-6.028 1.437-3.223 1.612-5.717.536-7.448-.708-1.15-1.965-1.969-3.844-2.507a1.379 1.379 0 0 1-1.041-1.33c0-.757.597-1.372 1.349-1.372h.027c.124 0 .248.018.369.052 2.548.722 4.381 1.97 5.451 3.707 1.585 2.549 1.47 5.911-.347 9.988-.007.018-2.431 5.588-7.94 7.53a8.14 8.14 0 0 1-2.688.464z" fill="#3F4447" data-color="1">
		</path>
		<path d="M68.362 126.116a3.94 3.94 0 0 1-2.587-.967 4 4 0 0 1-1.381-2.74 4.009 4.009 0 0 1 .947-2.92 3.95 3.95 0 0 1 2.719-1.391 3.98 3.98 0 0 1 2.9.955 3.99 3.99 0 0 1 1.38 2.738 4.004 4.004 0 0 1-.947 2.923 3.954 3.954 0 0 1-3.031 1.402zm.006-5.286a1.252 1.252 0 0 0-.958.443 1.274 1.274 0 0 0 .136 1.792h.001c.256.22.589.312.917.304a1.27 1.27 0 0 0 1.162-1.366 1.27 1.27 0 0 0-1.258-1.173z" fill="#3F4447" data-color="1">
		</path>
		<path d="M80.095 123.544c-.83 0-1.656-.031-2.473-.062a59.285 59.285 0 0 0-2.878-.057l-.028.001c-.74 0-1.346-.597-1.36-1.344a1.366 1.366 0 0 1 1.332-1.399c1.006-.022 2.018.018 3.037.057 2.423.095 4.696.179 6.798-.533.044-.016.09-.028.136-.039 2.358-.866 3.758-2.771 3.755-5.119.031-4.644-3.502-8.034-3.538-8.067-1.081-1.004-3.898-3.635-6.783-2.948-1.337.299-2.558 1.263-3.644 2.869a1.354 1.354 0 0 1-1.892.362 1.38 1.38 0 0 1-.359-1.906c1.489-2.201 3.27-3.546 5.293-4 4.279-.999 7.992 2.452 9.212 3.588.05.048 4.473 4.167 4.436 10.11.003 3.551-2.186 6.522-5.712 7.747a1.379 1.379 0 0 1-.17.048c-1.708.557-3.444.692-5.162.692z" fill="#3F4447" data-color="1">
		</path>
		<path d="M68.374 126.116c-.344 0-.691-.045-1.034-.137a3.963 3.963 0 0 1-2.421-1.869 4.014 4.014 0 0 1-.4-3.045 3.988 3.988 0 0 1 1.855-2.439 3.942 3.942 0 0 1 3.022-.403 3.963 3.963 0 0 1 2.421 1.869c.532.927.675 2.009.4 3.045a3.988 3.988 0 0 1-3.843 2.979zm-.008-5.286a1.257 1.257 0 0 0-1.217.943 1.274 1.274 0 0 0 .894 1.555 1.255 1.255 0 0 0 1.543-.9 1.274 1.274 0 0 0-.894-1.555 1.202 1.202 0 0 0-.326-.043z" fill="#3F4447" data-color="1">
		</path>
		<path d="M62.629 120.425c-.21 0-.422-.049-.622-.153a23.61 23.61 0 0 1-3.028-1.881 26.897 26.897 0 0 1-3.746-3.319c-2.371-2.527-3.594-5.713-3.27-8.521.511-4.424 4.98-6.799 6.448-7.579.058-.028 5.42-2.823 10.9-.857 3.368 1.208 5.427 4.293 5.374 8.051-.038 2.734-1.01 5.202-1.95 7.589-.356.905-.711 1.807-1.007 2.713a1.359 1.359 0 0 1-1.718.874 1.372 1.372 0 0 1-.867-1.731c.312-.958.685-1.911 1.062-2.866.888-2.256 1.725-4.387 1.756-6.618.038-2.585-1.294-4.615-3.563-5.429-4.307-1.543-8.671.674-8.712.698-1.281.68-4.674 2.482-5.019 5.472-.272 2.369 1.136 4.819 2.547 6.32a23.964 23.964 0 0 0 3.362 2.979 20.974 20.974 0 0 0 2.68 1.667c.668.347.931 1.173.586 1.847-.243.472-.72.744-1.213.744z" fill="#3F4447" data-color="1">
		</path>
		<path d="M68.359 126.116c-.795 0-1.569-.24-2.239-.701-.879-.604-1.471-1.518-1.668-2.571s.025-2.122.626-3.007a3.955 3.955 0 0 1 2.553-1.68 3.928 3.928 0 0 1 2.984.629 3.993 3.993 0 0 1 1.669 2.571 4.017 4.017 0 0 1-.625 3.007 3.965 3.965 0 0 1-3.3 1.752zm.01-5.286a1.244 1.244 0 0 0-1.043.553c-.191.28-.261.619-.198.952a1.257 1.257 0 0 0 1.472 1.013 1.27 1.27 0 0 0 1.006-1.484 1.262 1.262 0 0 0-1.237-1.034z" fill="#3F4447" data-color="1">
		</path>
		<path d="M32.178 116.532a5.768 5.768 0 0 1-1.931-.323c-3.341-1.17-4.389-5.034-4.733-6.304-.012-.045-1.228-4.655 1.208-8.56 1.171-1.881 2.448-3.07 3.903-3.637 1.875-.728 3.409.015 4.64.61.677.329 1.067 1.198.742 1.881-.326.682-1.03 1.021-1.711.693-1.363-.661-1.95-.911-2.688-.627-.876.341-1.743 1.195-2.579 2.537-1.764 2.826-.897 6.342-.888 6.378.278 1.024 1.013 3.741 3.002 4.436 1.194.421 2.749.061 4.622-1.067.83-.5 1.616-1.061 2.337-1.67a1.349 1.349 0 0 1 1.917.17c.483.58.408 1.446-.168 1.932a21.065 21.065 0 0 1-2.688 1.923c-1.799 1.084-3.468 1.628-4.985 1.628z" fill="#3F4447" data-color="1">
		</path>
		<path d="m44.538 109.571-.109-.001a3.323 3.323 0 0 1-2.343-1.068 3.375 3.375 0 0 1-.906-2.423 3.371 3.371 0 0 1 1.059-2.359c.654-.618 1.488-.978 2.406-.914h.001c1.849.062 3.306 1.628 3.247 3.491-.06 1.827-1.555 3.274-3.355 3.274zm.006-4.024c-.295 0-.632.323-.643.621-.009.301.316.65.616.661.248-.015.644-.268.656-.622a.642.642 0 0 0-.616-.659l-.013-.001z" fill="#3F4447" data-color="1">
		</path>
		<path d="M38.824 124.715c-.174 0-.35-.034-.52-.104-1.742-.725-3.157-1.766-4.209-3.097-1.781-2.259-1.904-5.118-.335-7.659a1.36 1.36 0 0 1 2.548.657v.019c0 .26-.074.513-.211.734-.973 1.548-.926 3.204.13 4.543.758.96 1.808 1.723 3.117 2.268a1.377 1.377 0 0 1 .739 1.792 1.364 1.364 0 0 1-1.259.847z" fill="#3F4447" data-color="1">
		</path>
		<path d="M44.532 109.571c-.403 0-.812-.073-1.21-.229-1.727-.674-2.587-2.638-1.916-4.378.669-1.741 2.622-2.612 4.346-1.93 1.727.677 2.585 2.641 1.916 4.378a3.366 3.366 0 0 1-3.136 2.159zm.006-4.024a.639.639 0 0 0-.594.408.643.643 0 0 0 .362.83.633.633 0 0 0 .824-.366.644.644 0 0 0-.363-.829.623.623 0 0 0-.229-.043z" fill="#3F4447" data-color="1">
		</path>
		<path d="M44.535 109.569a3.32 3.32 0 0 1-2.182-.813 3.363 3.363 0 0 1-1.164-2.308c-.069-.9.213-1.775.796-2.461a3.344 3.344 0 0 1 4.737-.369 3.407 3.407 0 0 1 .365 4.771 3.34 3.34 0 0 1-2.552 1.18zm.001-4.022a.63.63 0 0 0-.483.225c-.194.228-.158.705.069.902h.001a.637.637 0 0 0 .897-.068.646.646 0 0 0-.484-1.059z" fill="#3F4447" data-color="1">
		</path>
		<path d="M58.806 96.448c-.417 0-.829-.192-1.096-.557a8.022 8.022 0 0 0-.827-.976c-.711-.664-2.839-2.649-4.867-2.164-.937.21-1.801.899-2.582 2.051a1.349 1.349 0 0 1-1.891.36 1.376 1.376 0 0 1-.357-1.905c1.183-1.747 2.606-2.819 4.228-3.182 3.42-.787 6.345 1.92 7.305 2.813.109.101.601.582 1.182 1.372a1.378 1.378 0 0 1-.285 1.918 1.35 1.35 0 0 1-.81.27z" fill="#3F4447" data-color="1">
		</path>
		<path d="M44.542 109.571a3.36 3.36 0 0 1-2.913-1.688c-.926-1.616-.377-3.691 1.225-4.625a3.354 3.354 0 0 1 4.591 1.237 3.38 3.38 0 0 1 .337 2.567 3.368 3.368 0 0 1-1.563 2.055 3.323 3.323 0 0 1-1.677.454zm-.053-4.003a.553.553 0 0 0-.272.065.645.645 0 0 0-.23.877.63.63 0 0 0 .867.232h.001c.259-.15.383-.613.232-.874-.105-.184-.363-.3-.598-.3z" fill="#3F4447" data-color="1">
		</path>
		<path d="M38.882 104.495c-.248 0-.501-.068-.727-.213a17.985 17.985 0 0 1-.957-.655c-1.024-.747-2-1.61-2.897-2.564-1.873-1.996-2.835-4.519-2.576-6.753.406-3.539 3.925-5.408 5.08-6.022.182-.094 4.293-2.198 8.559-.67 2.7.969 4.35 3.438 4.307 6.442-.03 2.138-.814 4.131-1.443 5.732a1.358 1.358 0 0 1-1.767.771 1.375 1.375 0 0 1-.765-1.78c.576-1.466 1.229-3.127 1.251-4.762.028-1.848-.883-3.241-2.496-3.82-3.111-1.116-6.349.499-6.381.516-.925.491-3.399 1.805-3.641 3.909-.195 1.693.827 3.46 1.851 4.551.78.83 1.628 1.58 2.516 2.228.267.195.539.381.817.558.635.405.824 1.252.422 1.893a1.36 1.36 0 0 1-1.153.639z" fill="#3F4447" data-color="1">
		</path>
		<path d="M44.529 109.572a3.366 3.366 0 0 1-3.293-2.759 3.38 3.38 0 0 1 .526-2.533 3.338 3.338 0 0 1 2.154-1.418 3.323 3.323 0 0 1 2.514.531 3.364 3.364 0 0 1 1.408 2.168 3.387 3.387 0 0 1-.527 2.533 3.334 3.334 0 0 1-2.152 1.418c-.211.041-.422.06-.63.06zm-.03-4.021a.622.622 0 0 0-.487.275.638.638 0 0 0-.1.478.637.637 0 0 0 .743.513c.295-.057.563-.452.507-.75-.051-.269-.382-.516-.663-.516z" fill="#3F4447" data-color="1">
		</path>
		<path d="M37.016 143.236c-.154 0-.31-.027-.464-.082-3.944-1.439-6.545-4.033-8.034-5.955a1.38 1.38 0 0 1 .236-1.926 1.356 1.356 0 0 1 1.911.238c1.267 1.638 3.479 3.847 6.814 5.063a1.377 1.377 0 0 1 .817 1.757 1.36 1.36 0 0 1-1.28.905z" fill="#3F4447" data-color="1">
		</path>
		<path d="M35.655 151a8.668 8.668 0 0 1-1.799-.196c-6.511-1.405-11.261-8.588-13.079-15.084-.544-1.942-1.818-6.491.9-9.107 2.613-2.521 6.463-1.222 9.274-.28.518.174 1.007.339 1.457.469 4.015 1.152 12.37 3.549 11.717 11.037a1.362 1.362 0 0 1-1.476 1.246 1.367 1.367 0 0 1-1.236-1.487c.421-4.826-4.813-6.741-9.751-8.159a36.171 36.171 0 0 1-1.572-.503c-2.272-.763-5.098-1.711-6.531-.341-1.375 1.324-.75 4.275-.161 6.381 1.545 5.518 5.655 11.985 11.026 13.145.455.097.895.141 1.325.137.817-.006 1.548-.207 2.188-.601a1.353 1.353 0 0 1 1.872.454 1.375 1.375 0 0 1-.451 1.885A6.885 6.885 0 0 1 35.779 151h-.124z" fill="#3F4447" data-color="1">
		</path>
		<path d="M46.897 146.336c-6.215 0-10.522-3.241-10.704-3.38-.109-.079-3.22-2.402-2.279-6.249a1.367 1.367 0 0 1 1.649-1.003c.73.182 1.176.924.996 1.661-.498 2.033 1.194 3.339 1.266 3.394.05.039 3.903 2.878 9.222 2.832.838-.051 1.368.601 1.375 1.359s-.597 1.378-1.349 1.385l-.176.001z" fill="#3F4447" data-color="1">
		</path>
		<path d="M65.22 93.886c-.61 0-1.186-.454-1.36-1.07-.081-.287-.298-1.052.855-4.93 3.473-9.575 14.937-17.331 30.693-20.826a1.359 1.359 0 0 1 1.622 1.045 1.37 1.37 0 0 1-1.037 1.634C81.371 72.982 70.377 80.267 67.298 88.75c-.38 1.284-.805 3.034-.792 3.472.207.729-.226 1.408-.95 1.616a1.218 1.218 0 0 1-.336.048z" fill="#3F4447" data-color="1">
		</path>
		<path d="M113.592 114.574c-6.975 0-12.711-.067-18.033-.387a1.37 1.37 0 0 1-1.278-1.451c.046-.756.703-1.307 1.44-1.287 5.254.317 10.944.381 17.871.381 31.183 0 46.994-6.077 46.994-18.066 0-4.35-2.027-8.644-5.861-12.42a1.377 1.377 0 0 1-.022-1.939 1.352 1.352 0 0 1 1.925-.022c4.371 4.302 6.683 9.275 6.683 14.381-.002 14.003-16.265 20.81-49.719 20.81z" fill="#3F4447" data-color="1">
		</path>
		<path d="M120.678 141.989a348.699 348.699 0 0 1-23.279-.783 1.371 1.371 0 0 1-1.269-1.46c.052-.756.764-1.305 1.449-1.278 7.191.485 14.482.746 21.673.774 11.76.071 23.721-.516 35.46-1.679a32.917 32.917 0 0 0 7.517-1.683l.743-.259c2.374-.679 4.516-1.695 6.445-3.045 3.799-2.659 6.414-6.399 7.321-8.926 2.287-6.391-3.099-17.771-15.791-25.012a1.377 1.377 0 0 1-.514-1.869 1.355 1.355 0 0 1 1.855-.518c12.645 7.213 20.116 19.658 17.008 28.331-.975 2.722-3.743 7.037-8.325 10.247a23.921 23.921 0 0 1-7.184 3.408l-.669.235c-2.7.939-5.439 1.552-8.139 1.82a348.58 348.58 0 0 1-34.301 1.697z" fill="#3F4447" data-color="1">
		</path>
		<path d="M130.086 85.164c-12.968 0-26.375-1.461-29.73-4.281-3.975-3.336-6.079-7.283-6.079-11.415 0-.427.019-.838.072-1.247.706-7.161 7.723-13.395 18.762-16.633.445-.195 14.445-5.929 32.424.324 11.295 3.932 17.773 10.331 17.773 17.555 0 3.025-1.163 6.03-3.361 8.691-.907 1.15-2.078 2.271-3.461 3.307-3.186 2.491-14.612 3.699-26.4 3.699zm-1.485-33.386c-8.714 0-14.497 2.356-14.586 2.393-9.928 2.92-16.373 8.405-16.961 14.363a7.073 7.073 0 0 0-.053.933c0 3.292 1.762 6.511 5.099 9.308 5.29 4.448 47.183 4.845 52.74.504 1.217-.911 2.217-1.865 2.997-2.853 1.83-2.216 2.748-4.549 2.748-6.96 0-5.896-5.957-11.488-15.939-14.963a48.757 48.757 0 0 0-16.045-2.725z" fill="#3F4447" data-color="1">
		</path>
		<path d="M106.823 74.927a1.366 1.366 0 0 1-1.331-1.089c-.055-.262-1.295-6.46 2.485-11.423 2.663-3.496 7.068-5.435 13.095-5.762.747-.054 1.393.537 1.433 1.295a1.366 1.366 0 0 1-1.285 1.443c-5.197.284-8.927 1.863-11.082 4.694-3.027 3.973-1.993 9.136-1.981 9.188a1.372 1.372 0 0 1-1.334 1.654z" fill="#3F4447" data-color="1">
		</path>
		<path d="M136.171 105.752c-.691 0-1.284-.53-1.353-1.238a1.37 1.37 0 0 1 1.222-1.499c3.172-.315 12.01-1.918 14.793-5.494 2.929-3.769-1.542-8.057-1.734-8.237a1.382 1.382 0 0 1-.068-1.938 1.354 1.354 0 0 1 1.92-.073c2.267 2.115 5.607 7.33 2.024 11.938-4.068 5.232-16.156 6.482-16.669 6.533a1.267 1.267 0 0 1-.135.008z" fill="#3F4447" data-color="1">
		</path>
	</g>
</svg>
